<svg width="257" height="146" viewBox="0 0 257 146" fill="none" xmlns="http://www.w3.org/2000/svg">
<g filter="url(#filter0_d)">
<path fill-rule="evenodd" clip-rule="evenodd" d="M131.276 55.4232C131.377 55.4151 131.454 55.4098 131.498 55.4098C132.009 55.4098 133.381 55.9773 131.685 60.4668C129.989 64.9562 125.236 80.8117 124.48 85.8942C123.724 90.9768 124.334 94.8744 131.424 85.8942C134.035 82.5884 136.577 79.1695 138.804 76.0963C142.071 58.6699 152.447 52.1564 159.472 51.8497C166.808 51.5283 169.837 54.3473 170.48 57.017C170.752 58.0505 170.636 59.1477 170.155 60.102C169.674 61.0564 168.862 61.8021 167.869 62.199C165.801 63.2118 163.532 62.9455 164.823 61.6261C167.676 58.7129 165.899 56.8798 164.876 56.6498C163.085 56.2558 161.672 56.7628 159.239 60.7358C156.806 64.7087 155.601 69.9782 154.074 79.7963C152.548 89.6143 164.681 85.3603 170.742 79.7398C176.499 74.4004 175.688 75.2181 177.39 73.744C177.482 73.6647 177.572 73.584 177.659 73.506L177.678 73.4885C186.392 66.1411 197.414 70.3467 209.401 74.9235C220.933 79.3242 233.388 84.0786 245.165 78.7701C245.361 78.6858 245.583 78.682 245.782 78.7594C245.981 78.8368 246.142 78.9893 246.23 79.1841C246.318 79.3789 246.326 79.6004 246.253 79.8012C246.179 80.0019 246.03 80.1657 245.837 80.2576C233.441 85.8445 220.657 80.965 208.823 76.4474C197.453 72.1073 186.988 68.1087 179.012 74.5053C165.345 88.3811 154.741 91.8752 155.305 91.6708C155.305 91.6708 136.66 97.3666 138.248 79.8649C135.359 84.0045 132.062 87.8438 128.406 91.3251C121.293 97.6463 111.549 95.0197 109.971 92.4683C108.393 89.917 108.943 83.3819 112.166 74.126C114.376 68.7365 117.239 63.6384 120.69 58.9456C118.048 59.3243 115.372 59.4145 112.711 59.2146C112.118 59.8804 111.476 60.6578 110.775 61.501C105.335 68.1033 96.7421 78.5307 75.6265 79.2381C64.6612 79.6066 56.3374 77.7278 48.8407 76.0345C36.6474 73.2827 26.6774 71.0326 11.1137 80.0773C10.6228 80.3625 10.1346 80.3114 10.0229 79.963C9.9113 79.6147 10.218 79.0996 10.7089 78.8144C27.1077 69.2842 37.3831 71.6029 49.9529 74.4394C57.3716 76.1138 65.6067 77.9725 76.3851 77.6107C96.336 76.9383 104.383 67.178 109.471 60.9967C110.081 60.2556 110.654 59.5603 111.207 58.9268L111.144 58.9093C106.913 57.6881 107.176 53.4932 108.091 49.7812C108.597 46.8635 110.133 44.2243 112.42 42.3437C115.095 39.7062 119.037 41.0229 120.749 40.8118C122.461 40.6006 125.299 42.3867 123.457 48.6367C122.779 51.3617 121.159 53.7591 118.884 55.4044C123.005 55.7029 127.143 55.7029 131.264 55.4044L131.276 55.4232ZM116.801 54.6257C120.351 51.9224 122.256 48.2157 120.817 44.7955C119.628 41.9724 113.041 51.8268 116.801 54.627V54.6257Z" fill="#22B655"/>
</g>
<g filter="url(#filter1_d)">
<path d="M187.623 132.311C187.281 132.311 186.953 132.18 186.705 131.945C186.591 131.837 186.5 131.708 186.437 131.564C186.373 131.42 186.34 131.265 186.337 131.108C186.335 130.951 186.364 130.796 186.423 130.65C186.483 130.505 186.57 130.372 186.681 130.261C186.932 130.014 187.27 129.875 187.623 129.877C187.952 129.87 188.272 129.993 188.511 130.219C188.751 130.446 188.892 130.757 188.904 131.087C188.904 131.242 188.873 131.395 188.814 131.538C188.754 131.68 188.666 131.81 188.556 131.918C188.309 132.167 187.973 132.308 187.623 132.311ZM195.059 126.479H195.044C194.707 126.481 194.382 126.354 194.136 126.123C194.018 126.013 193.924 125.88 193.859 125.732C193.795 125.583 193.762 125.424 193.762 125.262C193.746 125.004 193.808 124.748 193.94 124.526C194.071 124.304 194.266 124.126 194.5 124.016C194.733 123.906 194.994 123.869 195.25 123.909C195.505 123.949 195.742 124.064 195.93 124.241C196.119 124.417 196.25 124.646 196.307 124.897C196.365 125.149 196.345 125.412 196.251 125.653C196.157 125.893 195.993 126.1 195.78 126.246C195.567 126.392 195.316 126.471 195.057 126.473L195.059 126.479ZM82.2585 123.472C81.9738 123.466 81.6903 123.434 81.4112 123.378C81.1415 123.325 80.8795 123.239 80.6311 123.121C80.4156 123.025 80.2086 122.911 80.0124 122.779C79.8049 122.637 79.6104 122.477 79.4314 122.301L79.4153 122.283C79.2362 122.103 79.0737 121.906 78.9298 121.697C78.7931 121.487 78.673 121.266 78.5707 121.038L78.5613 121.003C78.461 120.762 78.3857 120.511 78.3366 120.255C78.2814 119.995 78.2539 119.729 78.2546 119.463L78.2385 110.436V110.157C78.19 84.1002 78.0771 23.0815 78.5626 17.2539H78.5249C78.527 16.9883 78.5545 16.7234 78.607 16.4631C78.6607 16.1999 78.7391 15.9423 78.841 15.6938L78.8544 15.6615C78.9582 15.4266 79.0829 15.2015 79.227 14.989C79.3718 14.7812 79.5338 14.586 79.7112 14.4053L79.7421 14.3757C79.9248 14.2027 80.1209 14.0444 80.3285 13.9023C80.5387 13.7617 80.7611 13.6402 80.9929 13.5392L81.0319 13.5244C81.2801 13.4226 81.5372 13.3438 81.7999 13.289C82.061 13.2433 82.3256 13.2199 82.5907 13.2191H82.6068C89.7969 13.2675 96.9695 13.3536 104.933 13.449L108.872 13.4988C109.85 13.4988 110.864 13.4907 111.885 13.4907C118.693 13.4907 125.453 13.6051 131.989 13.7153L134.141 13.749C138.703 13.8216 143.421 13.8969 148.065 13.9238C149.644 13.9305 164.496 14.3569 174.762 14.8451C177.815 14.9216 180.858 15.221 183.868 15.7408H184.042L184.071 15.7798C185.265 16.0623 185.87 16.3864 185.869 16.7442C185.869 17.496 185.243 17.8941 184.059 17.8941C184.765 33.2506 185.354 49.8674 185.858 68.6912C186.306 85.3053 186.639 101.66 186.997 119.784C187.003 119.947 186.989 120.109 186.958 120.268C186.911 120.483 186.842 120.691 186.751 120.891L186.676 121.034C186.549 121.307 186.358 121.546 186.119 121.729L186.072 121.76C185.868 121.967 185.613 122.116 185.332 122.192L184.977 122.298C184.813 122.337 184.645 122.356 184.477 122.353L179.432 122.442V120.27C180.445 120.27 181.359 120.258 182.081 120.251L183.607 120.212L183.923 119.799L184.431 119.779C184.371 114.408 184.19 108.885 184.015 103.541L184.002 103.126L183.983 102.576C183.849 98.4064 183.703 94.1025 183.625 89.8216C183.534 85.3268 183.324 80.7109 183.121 76.2471L183.106 75.9189L183.074 75.4576C182.862 70.7288 182.641 65.8426 182.562 60.9699L182.462 54.6756C182.328 46.9408 182.193 38.9397 182.22 31.3731C182.211 27.5629 182.085 23.6504 181.96 19.8671L181.884 17.691L182.354 17.6614L182.367 17.3843C181.286 17.7301 180.165 17.9336 179.031 17.9896H179.015C178.623 17.9928 178.23 17.9712 177.841 17.925C177.442 17.8997 177.063 17.7415 176.765 17.4758C175.369 17.2485 171.243 17.0643 168.023 16.9499C163.661 16.7912 157.91 16.654 150.443 16.5317L151.164 16.724C149.503 16.7415 147.815 16.7657 146.188 16.7899C143.175 16.8343 140.063 16.8787 137.018 16.8787H136.32C135.802 16.8948 135.439 16.8975 135.224 16.8975C135.041 16.8975 134.955 16.8975 134.955 16.8975V16.6756C133.952 16.8642 132.931 16.9471 131.911 16.923C130.654 16.923 129.175 16.8437 127.517 16.689L125.057 16.6715L120.731 16.5491C120.008 17.2216 116.935 17.3252 115.168 17.3252C114.694 17.3252 114.314 17.3184 114.131 17.3144C113.898 17.3081 113.665 17.2884 113.434 17.2552L113.352 17.2458C112.841 17.11 112.358 16.8836 111.927 16.5774L110.158 16.4927C109.125 17.0323 107.972 17.3016 106.806 17.2754H106.773L106.588 17.2915C106.296 17.3438 106 17.3676 105.704 17.3628C104.658 17.3309 103.615 17.2207 102.586 17.0333L102.544 17.0266L102.512 17.0185C97.3536 16.5234 92.1734 16.2904 86.9913 16.3205L82.4253 16.2465V16.2627H82.4105H82.3997C82.3968 16.264 82.3935 16.2647 82.3903 16.2647C82.3871 16.2647 82.3838 16.264 82.3809 16.2627C82.3797 16.2601 82.3791 16.2574 82.3791 16.2546C82.3791 16.2518 82.3797 16.2491 82.3809 16.2465L82.0635 16.4039C82.0568 16.4044 82.0502 16.4025 82.0447 16.3986C82.0393 16.3946 82.0355 16.3889 82.0339 16.3824C82.0339 16.3689 82.0245 16.3595 82.0178 16.3595C82.011 16.3595 82.0016 16.3676 81.9882 16.3851L81.7541 16.6836C81.7541 16.6917 81.7407 16.6971 81.7353 16.6971C81.7299 16.6971 81.7151 16.6783 81.7111 16.6594L81.5618 17.0629L81.5376 17.2781C81.4959 20.7602 81.4233 24.1817 81.3386 27.9731L81.3143 29.1835C81.1987 34.8054 81.0803 40.6155 81.1045 46.3208C81.3278 63.5522 81.1153 81.0956 80.9095 98.0607V98.4817L80.7871 110.368L80.7239 119.396L80.7387 119.53C80.7434 119.606 80.7434 119.682 80.7387 119.757C80.7315 119.799 80.7315 119.841 80.7387 119.882L80.9472 120.239C80.9651 120.274 80.9756 120.313 80.9781 120.353C80.9781 120.385 80.9781 120.408 81.0117 120.427L81.3345 120.68C81.3589 120.705 81.3785 120.735 81.3924 120.767C81.4071 120.798 81.4179 120.821 81.4542 120.831C81.6051 120.865 81.7535 120.91 81.8981 120.965L81.9478 120.983L82.2639 121.019H82.8207C83.6357 121.019 84.8798 121.019 86.5193 121.009V123.453L83.2094 123.472H82.3378H82.2585ZM196.32 118.98C196.246 118.98 196.172 118.965 196.103 118.937C196.034 118.908 195.972 118.866 195.919 118.814C195.866 118.761 195.825 118.698 195.796 118.63C195.767 118.561 195.753 118.487 195.753 118.412C195.753 118.338 195.767 118.264 195.796 118.195C195.825 118.126 195.866 118.064 195.919 118.011C195.972 117.958 196.034 117.917 196.103 117.888C196.172 117.859 196.246 117.845 196.32 117.845C196.402 117.845 196.483 117.86 196.559 117.892C196.635 117.923 196.704 117.969 196.761 118.026C196.813 118.077 196.853 118.138 196.88 118.205C196.908 118.271 196.921 118.343 196.92 118.415C196.918 118.492 196.901 118.567 196.869 118.637C196.838 118.706 196.793 118.769 196.737 118.822C196.682 118.874 196.616 118.915 196.545 118.942C196.473 118.969 196.397 118.982 196.32 118.98ZM190.403 115.214C190.322 115.215 190.242 115.2 190.167 115.169C190.093 115.139 190.025 115.094 189.968 115.037C189.917 114.986 189.876 114.926 189.849 114.859C189.821 114.793 189.808 114.721 189.808 114.649C189.807 114.579 189.819 114.509 189.846 114.444C189.872 114.379 189.911 114.32 189.96 114.27C190.078 114.154 190.237 114.09 190.403 114.09C190.568 114.09 190.727 114.154 190.845 114.27C190.946 114.372 191.003 114.51 191.003 114.654C191.003 114.798 190.946 114.936 190.845 115.038C190.726 115.151 190.568 115.214 190.404 115.211L190.403 115.214ZM194.798 106.441C194.445 106.441 194.106 106.301 193.856 106.052C193.747 105.944 193.661 105.816 193.602 105.674C193.543 105.532 193.513 105.38 193.513 105.227C193.524 104.897 193.664 104.584 193.904 104.357C194.144 104.13 194.464 104.008 194.794 104.016H194.807C194.966 104.017 195.123 104.049 195.27 104.111C195.417 104.172 195.55 104.262 195.661 104.375C195.773 104.488 195.862 104.622 195.922 104.769C195.982 104.916 196.012 105.074 196.012 105.233C196.011 105.392 195.979 105.549 195.917 105.695C195.856 105.842 195.766 105.975 195.653 106.087C195.54 106.199 195.406 106.287 195.259 106.347C195.112 106.407 194.954 106.438 194.795 106.437L194.798 106.441ZM190.978 88.8492C190.867 88.8424 190.761 88.8031 190.672 88.7364C190.583 88.6696 190.515 88.5782 190.478 88.4736C190.44 88.3689 190.434 88.2555 190.46 88.1474C190.486 88.0393 190.544 87.9413 190.625 87.8654C190.706 87.7896 190.808 87.7392 190.918 87.7205C191.027 87.7019 191.14 87.7157 191.242 87.7605C191.344 87.8052 191.43 87.8787 191.491 87.9721C191.551 88.0654 191.583 88.1745 191.582 88.2857C191.575 88.4397 191.509 88.5849 191.396 88.69C191.283 88.7952 191.134 88.8519 190.98 88.8478L190.978 88.8492ZM75.0066 34.0926C74.7013 34.0903 74.4061 33.9835 74.17 33.79C73.8963 33.5718 73.7202 33.2541 73.6805 32.9063C73.6625 32.7528 73.6754 32.5972 73.7184 32.4487C73.7613 32.3002 73.8335 32.1618 73.9306 32.0415C74.0439 31.9054 74.186 31.7962 74.3468 31.722C74.5076 31.6478 74.6829 31.6104 74.86 31.6125C75.1636 31.6143 75.4575 31.7202 75.6925 31.9124C75.9551 32.1132 76.1277 32.4097 76.1726 32.7373C76.2174 33.0648 76.1309 33.3968 75.9319 33.6608C75.8202 33.7979 75.6789 33.9079 75.5187 33.9827C75.3584 34.0575 75.1834 34.095 75.0066 34.0926ZM72.9152 24.8878C72.6084 24.8863 72.3113 24.78 72.0732 24.5865C71.8008 24.3671 71.6259 24.0491 71.5864 23.7015C71.5688 23.5477 71.582 23.3919 71.6252 23.2432C71.6684 23.0945 71.7407 22.9559 71.8379 22.8354C71.9506 22.6993 72.0923 22.5902 72.2526 22.5159C72.413 22.4417 72.5879 22.4043 72.7645 22.4064C73.0678 22.4078 73.3615 22.5127 73.5971 22.7036C73.861 22.9051 74.0348 23.2025 74.0809 23.5313C74.127 23.8601 74.0416 24.1938 73.8432 24.4601C73.7302 24.596 73.5882 24.705 73.4276 24.779C73.267 24.853 73.092 24.8902 72.9152 24.8878ZM83.1731 18.9068C83.0335 18.906 82.8981 18.8587 82.7884 18.7723C82.6644 18.6783 82.5824 18.5391 82.5603 18.3851C82.5381 18.231 82.5776 18.0744 82.67 17.9492C82.723 17.8856 82.7895 17.8347 82.8646 17.8C82.9398 17.7653 83.0217 17.7478 83.1045 17.7488C83.2578 17.7503 83.4053 17.8075 83.5197 17.9097C83.634 18.0118 83.7072 18.1521 83.7258 18.3043C83.734 18.3761 83.7276 18.4489 83.7071 18.5182C83.6865 18.5875 83.6522 18.652 83.6061 18.7078C83.5531 18.7709 83.4868 18.8214 83.4119 18.8558C83.337 18.8903 83.2555 18.9077 83.1731 18.9068ZM76.2076 18.0999C76.0683 18.0999 75.9331 18.0524 75.8243 17.9654C75.7005 17.8708 75.6187 17.7315 75.5966 17.5773C75.5745 17.4232 75.6137 17.2664 75.7059 17.1409C75.7586 17.0777 75.8246 17.027 75.8993 16.9926C75.974 16.9582 76.0554 16.9408 76.1377 16.9419C76.2803 16.9417 76.4189 16.9891 76.5317 17.0764C76.6558 17.1769 76.7362 17.3214 76.7563 17.4798C76.7679 17.554 76.7638 17.6298 76.7444 17.7023C76.7249 17.7748 76.6905 17.8424 76.6434 17.9008C76.5902 17.9641 76.5237 18.0147 76.4485 18.0492C76.3734 18.0836 76.2916 18.1009 76.2089 18.0999H76.2076ZM73.0066 12.825C72.8643 12.8255 72.726 12.7782 72.6139 12.6905C72.5501 12.6393 72.497 12.576 72.4578 12.5042C72.4186 12.4324 72.3939 12.3536 72.3853 12.2722C72.3765 12.1954 72.3842 12.1176 72.4077 12.0439C72.4313 11.9702 72.4703 11.9024 72.522 11.845C72.5738 11.7875 72.6371 11.7417 72.7079 11.7105C72.7787 11.6794 72.8553 11.6636 72.9327 11.6643C73.0737 11.6637 73.2108 11.7111 73.3214 11.7988C73.3834 11.8449 73.4357 11.9029 73.4752 11.9693C73.5147 12.0358 73.5406 12.1094 73.5515 12.186C73.5624 12.2625 73.558 12.3404 73.5386 12.4153C73.5191 12.4901 73.4851 12.5603 73.4384 12.6219C73.3863 12.686 73.3204 12.7375 73.2457 12.7727C73.1709 12.8079 73.0892 12.8257 73.0066 12.825ZM184.492 11.6401C184.139 11.6418 183.801 11.5034 183.55 11.2554C183.44 11.1471 183.353 11.0181 183.294 10.8759C183.235 10.7337 183.204 10.5811 183.204 10.427C183.204 10.2728 183.235 10.1202 183.294 9.97803C183.353 9.83582 183.44 9.70681 183.55 9.59848C183.673 9.47664 183.818 9.38037 183.978 9.31526C184.138 9.25015 184.309 9.2175 184.482 9.21921H184.498C184.829 9.21051 185.149 9.33294 185.39 9.55975C185.63 9.78656 185.771 10.0993 185.781 10.4297C185.768 10.7605 185.626 11.073 185.385 11.2997C185.143 11.5264 184.823 11.6491 184.492 11.6414V11.6401ZM180.465 10.197C180.301 10.1974 180.143 10.1325 180.026 10.0168C179.975 9.96598 179.934 9.90526 179.906 9.83823C179.878 9.7712 179.864 9.69926 179.865 9.62672C179.871 9.47225 179.938 9.32648 180.051 9.221C180.164 9.11551 180.314 9.05882 180.469 9.06319C180.633 9.06297 180.791 9.12776 180.907 9.24342C180.959 9.29415 181 9.35465 181.028 9.42139C181.056 9.48812 181.07 9.55975 181.07 9.6321C181.064 9.78694 180.997 9.93305 180.883 10.0388C180.77 10.1445 180.62 10.2014 180.465 10.197ZM85.7419 9.48282C85.4384 9.48067 85.1445 9.37592 84.908 9.18558C84.7716 9.07774 84.6579 8.94385 84.5736 8.7917C84.4893 8.63954 84.4362 8.47216 84.4171 8.29927C84.3991 8.1347 84.4161 7.96818 84.4671 7.81068C84.5181 7.65318 84.6018 7.50827 84.7129 7.38551C84.824 7.26275 84.9598 7.16492 85.1114 7.09848C85.2631 7.03204 85.4271 6.99849 85.5926 7.00005C85.8986 7.0025 86.1947 7.10925 86.4319 7.30266C86.7052 7.51996 86.8812 7.83674 86.9214 8.1836C86.9394 8.33736 86.9266 8.49316 86.8836 8.64189C86.8407 8.79062 86.7685 8.92928 86.6713 9.04974C86.5585 9.18677 86.4165 9.2968 86.2557 9.37174C86.0949 9.44668 85.9193 9.48464 85.7419 9.48282Z" fill="#22B655"/>
</g>
<g filter="url(#filter2_d)">
<path d="M106.336 123.672H105.428L104.686 121.709H101.717L101.019 123.672H100.106L102.791 116.67H103.641L106.336 123.672ZM104.417 120.972L103.318 117.989C103.283 117.891 103.247 117.735 103.211 117.52H103.192C103.159 117.718 103.122 117.875 103.079 117.989L101.99 120.972H104.417ZM108.084 122.95H108.065V125.972H107.264V118.672H108.065V119.551H108.084C108.478 118.887 109.054 118.555 109.813 118.555C110.457 118.555 110.96 118.78 111.321 119.229C111.683 119.675 111.863 120.274 111.863 121.026C111.863 121.862 111.66 122.533 111.253 123.037C110.846 123.539 110.29 123.789 109.583 123.789C108.935 123.789 108.436 123.509 108.084 122.95ZM108.065 120.933V121.631C108.065 122.045 108.198 122.396 108.465 122.686C108.735 122.972 109.077 123.116 109.49 123.116C109.975 123.116 110.355 122.93 110.628 122.559C110.905 122.188 111.043 121.672 111.043 121.011C111.043 120.454 110.915 120.018 110.657 119.703C110.4 119.387 110.052 119.229 109.612 119.229C109.147 119.229 108.773 119.392 108.489 119.717C108.206 120.039 108.065 120.445 108.065 120.933ZM113.963 122.95H113.943V125.972H113.143V118.672H113.943V119.551H113.963C114.357 118.887 114.933 118.555 115.692 118.555C116.336 118.555 116.839 118.78 117.2 119.229C117.562 119.675 117.742 120.274 117.742 121.026C117.742 121.862 117.539 122.533 117.132 123.037C116.725 123.539 116.168 123.789 115.462 123.789C114.814 123.789 114.315 123.509 113.963 122.95ZM113.943 120.933V121.631C113.943 122.045 114.077 122.396 114.344 122.686C114.614 122.972 114.956 123.116 115.369 123.116C115.854 123.116 116.234 122.93 116.507 122.559C116.784 122.188 116.922 121.672 116.922 121.011C116.922 120.454 116.793 120.018 116.536 119.703C116.279 119.387 115.931 119.229 115.491 119.229C115.026 119.229 114.651 119.392 114.368 119.717C114.085 120.039 113.943 120.445 113.943 120.933ZM127.518 123.672H126.512L122.908 118.091C122.817 117.951 122.742 117.805 122.684 117.652H122.654C122.68 117.801 122.693 118.122 122.693 118.614V123.672H121.873V116.67H122.938L126.443 122.163C126.59 122.391 126.684 122.548 126.727 122.632H126.746C126.714 122.43 126.697 122.087 126.697 121.602V116.67H127.518V123.672ZM132.825 123.672H132.025V122.891H132.005C131.657 123.49 131.144 123.789 130.467 123.789C129.969 123.789 129.578 123.658 129.295 123.394C129.015 123.13 128.875 122.78 128.875 122.344C128.875 121.41 129.425 120.866 130.526 120.713L132.025 120.503C132.025 119.654 131.681 119.229 130.994 119.229C130.392 119.229 129.848 119.434 129.363 119.844V119.024C129.855 118.711 130.421 118.555 131.063 118.555C132.238 118.555 132.825 119.177 132.825 120.42V123.672ZM132.025 121.143L130.818 121.309C130.447 121.361 130.167 121.454 129.979 121.587C129.79 121.717 129.695 121.95 129.695 122.286C129.695 122.53 129.782 122.73 129.954 122.886C130.13 123.039 130.363 123.116 130.652 123.116C131.05 123.116 131.377 122.977 131.634 122.701C131.894 122.421 132.025 122.067 132.025 121.641V121.143ZM141.434 123.672H140.633V120.801C140.633 120.248 140.547 119.847 140.374 119.6C140.205 119.353 139.918 119.229 139.515 119.229C139.173 119.229 138.882 119.385 138.641 119.698C138.403 120.01 138.284 120.384 138.284 120.821V123.672H137.484V120.703C137.484 119.72 137.104 119.229 136.346 119.229C135.994 119.229 135.705 119.377 135.477 119.673C135.249 119.966 135.135 120.349 135.135 120.821V123.672H134.334V118.672H135.135V119.463H135.154C135.509 118.858 136.027 118.555 136.707 118.555C137.049 118.555 137.347 118.651 137.601 118.843C137.855 119.032 138.029 119.281 138.123 119.59C138.494 118.9 139.048 118.555 139.783 118.555C140.884 118.555 141.434 119.234 141.434 120.591V123.672ZM146.966 121.372H143.436C143.449 121.929 143.598 122.359 143.885 122.661C144.171 122.964 144.565 123.116 145.067 123.116C145.63 123.116 146.147 122.93 146.619 122.559V123.311C146.18 123.63 145.599 123.789 144.876 123.789C144.17 123.789 143.615 123.563 143.211 123.111C142.807 122.655 142.606 122.015 142.606 121.192C142.606 120.414 142.825 119.781 143.265 119.292C143.707 118.801 144.256 118.555 144.91 118.555C145.565 118.555 146.071 118.767 146.429 119.19C146.787 119.613 146.966 120.201 146.966 120.953V121.372ZM146.146 120.694C146.142 120.231 146.03 119.872 145.809 119.615C145.591 119.357 145.286 119.229 144.896 119.229C144.518 119.229 144.197 119.364 143.934 119.634C143.67 119.904 143.507 120.258 143.445 120.694H146.146Z" fill="#22B655"/>
</g>
<defs>
<filter id="filter0_d" x="0" y="33.666" width="256.303" height="74.5805" filterUnits="userSpaceOnUse" color-interpolation-filters="sRGB">
<feFlood flood-opacity="0" result="BackgroundImageFix"/>
<feColorMatrix in="SourceAlpha" type="matrix" values="0 0 0 0 0 0 0 0 0 0 0 0 0 0 0 0 0 0 127 0"/>
<feOffset dy="3"/>
<feGaussianBlur stdDeviation="5"/>
<feColorMatrix type="matrix" values="0 0 0 0 0 0 0 0 0 0 0 0 0 0 0 0 0 0 0.161 0"/>
<feBlend mode="normal" in2="BackgroundImageFix" result="effect1_dropShadow"/>
<feBlend mode="normal" in="SourceGraphic" in2="effect1_dropShadow" result="shape"/>
</filter>
<filter id="filter1_d" x="61.5789" y="0" width="145.341" height="145.311" filterUnits="userSpaceOnUse" color-interpolation-filters="sRGB">
<feFlood flood-opacity="0" result="BackgroundImageFix"/>
<feColorMatrix in="SourceAlpha" type="matrix" values="0 0 0 0 0 0 0 0 0 0 0 0 0 0 0 0 0 0 127 0"/>
<feOffset dy="3"/>
<feGaussianBlur stdDeviation="5"/>
<feColorMatrix type="matrix" values="0 0 0 0 0 0 0 0 0 0 0 0 0 0 0 0 0 0 0.161 0"/>
<feBlend mode="normal" in2="BackgroundImageFix" result="effect1_dropShadow"/>
<feBlend mode="normal" in="SourceGraphic" in2="effect1_dropShadow" result="shape"/>
</filter>
<filter id="filter2_d" x="90.1056" y="109.67" width="66.8604" height="29.3018" filterUnits="userSpaceOnUse" color-interpolation-filters="sRGB">
<feFlood flood-opacity="0" result="BackgroundImageFix"/>
<feColorMatrix in="SourceAlpha" type="matrix" values="0 0 0 0 0 0 0 0 0 0 0 0 0 0 0 0 0 0 127 0"/>
<feOffset dy="3"/>
<feGaussianBlur stdDeviation="5"/>
<feColorMatrix type="matrix" values="0 0 0 0 0 0 0 0 0 0 0 0 0 0 0 0 0 0 0.161 0"/>
<feBlend mode="normal" in2="BackgroundImageFix" result="effect1_dropShadow"/>
<feBlend mode="normal" in="SourceGraphic" in2="effect1_dropShadow" result="shape"/>
</filter>
</defs>
</svg>
